<svg xmlns="http://www.w3.org/2000/svg" width="120" height="40" viewBox="0 0 120 40"><rect width="120" height="40" rx="8" fill="#A970FF"/><g transform="translate(12,8)"><circle cx="12" cy="12" r="10" fill="#fff"/><path fill="#A970FF" d="M12 5.5a3.75 3.75 0 0 1 1.18 7.3v3.82a1.18 1.18 0 1 1-2.36 0V12.8A3.75 3.75 0 0 1 12 5.5Zm0-2a5.75 5.75 0 0 0-2.07 11.1v2.77a2.07 2.07 0 1 0 4.14 0v-2.77A5.75 5.75 0 0 0 12 3.5Z"/></g><text x="48" y="25" font-family="Inter, system-ui, Arial" font-size="14" fill="#fff">Apple Podcasts</text></svg>