<svg xmlns="http://www.w3.org/2000/svg" width="120" height="40" viewBox="0 0 120 40"><rect width="120" height="40" rx="8" fill="#1DB954"/><g transform="translate(12,8)"><circle cx="12" cy="12" r="10" fill="#0b0b0b"/><path fill="#1DB954" d="M6.5 12.2c3.7-1.1 8.8-.9 12.1 1 .3.2.4.6.2.9s-.6.4-.9.2c-3-1.7-7.7-1.9-10.8-.9-.4.1-.8-.1-.9-.5s.2-.8.6-.9Zm0-3.4c4.2-1.2 10-.9 13.8 1.3.4.2.5.7.3 1-.2.4-.7.5-1.1.3-3.4-1.9-8.6-2.1-11.7-1.1-.5.1-1-.2-1.1-.7-.1-.5.2-1 .8-1.1Zm.7-3.2c3.3-1 9.4-.8 13 .8.5.2.7.8.4 1.3-.2.5-.8.7-1.3.4-3.2-1.7-8.7-1.8-11.7-.9-.5.1-1-.2-1.1-.8s.3-1 .7-1.2Z"/></g><text x="48" y="25" font-family="Inter, system-ui, Arial" font-size="14" fill="#fff">Spotify Podcasts</text></svg>